<svg width="54" height="38" viewBox="0 0 54 38" fill="none" xmlns="http://www.w3.org/2000/svg">
<rect width="54" height="38" rx="5" fill="#2E8EFE"/>
<path d="M8.00852 8.63636H12.5227L18.5682 23.392H18.8068L24.8523 8.63636H29.3665V29H25.8267V15.0099H25.6378L20.0099 28.9403H17.3651L11.7372 14.9801H11.5483V29H8.00852V8.63636ZM39.9858 29.2983C38.4545 29.2983 37.1321 28.9801 36.0185 28.3438C34.9115 27.7008 34.0597 26.7926 33.4631 25.6193C32.8665 24.4394 32.5682 23.0507 32.5682 21.4531C32.5682 19.8821 32.8665 18.5033 33.4631 17.3168C34.0663 16.1236 34.9081 15.1955 35.9886 14.5327C37.0691 13.8632 38.3385 13.5284 39.7969 13.5284C40.7382 13.5284 41.6264 13.6809 42.4616 13.9858C43.3035 14.2841 44.0459 14.7481 44.6889 15.3778C45.3385 16.0076 45.849 16.8097 46.2202 17.7841C46.5914 18.7519 46.777 19.9053 46.777 21.2443V22.348H34.2585V19.9219H43.3267C43.3201 19.2325 43.1709 18.6193 42.8793 18.0824C42.5876 17.5388 42.1799 17.1113 41.6562 16.7997C41.1392 16.4882 40.536 16.3324 39.8466 16.3324C39.1108 16.3324 38.4645 16.5114 37.9077 16.8693C37.3509 17.2206 36.9167 17.6847 36.6051 18.2614C36.3002 18.8314 36.1444 19.4579 36.1378 20.1406V22.2585C36.1378 23.1468 36.3002 23.9091 36.625 24.5455C36.9498 25.1752 37.4039 25.6591 37.9872 25.9972C38.5705 26.3286 39.2533 26.4943 40.0355 26.4943C40.5592 26.4943 41.0331 26.4214 41.4574 26.2756C41.8816 26.1231 42.2495 25.901 42.5611 25.6094C42.8726 25.3177 43.108 24.9564 43.267 24.5256L46.6278 24.9034C46.4157 25.7917 46.0114 26.5672 45.4148 27.2301C44.8248 27.8864 44.0691 28.3968 43.1477 28.7614C42.2263 29.1193 41.1723 29.2983 39.9858 29.2983Z" fill="#FEFEFE"/>
</svg>