<svg width="28" height="28" viewBox="0 0 28 28" fill="none" xmlns="http://www.w3.org/2000/svg">
<g clip-path="url(#clip0_296226_34345)">
<path d="M2.22688 8.34243C2.2136 10.8121 3.70574 12.9418 5.82176 13.9007C6.07032 14.0105 6.34172 14.0207 6.60024 13.9308L6.61463 13.9239C8.53093 13.3315 13.4483 8.1831 13.9348 6.61817C14.0241 6.3622 14.0137 6.0837 13.8957 5.83967C12.9538 3.70904 10.8165 2.22882 8.32971 2.2294C4.95676 2.2343 2.23137 4.97326 2.22688 8.34243Z" fill="url(#paint0_linear_296226_34345)"/>
<path d="M5.84653 14.113C3.71906 15.0657 2.23354 17.195 2.22966 19.6842C2.22658 23.0387 4.95058 25.7758 8.32174 25.7625C10.7991 25.7683 12.9447 24.2709 13.9011 22.1525C14.0014 21.9103 14.0203 21.6231 13.9342 21.378C13.4476 19.7986 8.54168 14.6561 6.63121 14.0649L6.61736 14.0729C6.50029 14.03 6.39917 14.0148 6.28419 14.0075C6.14153 14.0162 5.97913 14.0548 5.84653 14.113Z" fill="url(#paint1_linear_296226_34345)"/>
<path d="M14.0927 5.85105C13.9924 6.09321 13.9735 6.38046 14.0596 6.62552C14.5462 8.20497 19.4521 13.3475 21.3546 13.9248L21.3764 13.9306C21.6324 14.0222 21.9039 14.0128 22.1472 13.8906C24.2747 12.9379 25.7602 10.8086 25.7641 8.31939C25.7811 4.95683 23.0432 2.22778 19.672 2.24101C17.1947 2.2353 15.0491 3.73269 14.0927 5.85105Z" fill="url(#paint2_linear_296226_34345)"/>
<path d="M21.3901 14.074L21.3719 14.0692C19.4571 14.6689 14.5359 19.8137 14.0556 21.3801C13.9756 21.6412 13.9797 21.915 14.0895 22.1585C15.044 24.2925 17.1767 25.7764 19.6629 25.7673C23.0257 25.758 25.7574 23.0291 25.768 19.6624C25.7716 17.1897 24.2921 15.0521 22.1611 14.1043C22.0206 14.0473 21.8752 14.0086 21.7267 14.0177C21.6127 14.0068 21.5005 14.0255 21.3901 14.074Z" fill="url(#paint3_linear_296226_34345)"/>
</g>
<defs>
<linearGradient id="paint0_linear_296226_34345" x1="14.3767" y1="4.41029" x2="-0.0191868" y2="11.3745" gradientUnits="userSpaceOnUse">
<stop stop-color="#2D8FFF"/>
<stop offset="1" stop-color="#206BC2"/>
</linearGradient>
<linearGradient id="paint1_linear_296226_34345" x1="3.87232" y1="14.0008" x2="11.8517" y2="27.813" gradientUnits="userSpaceOnUse">
<stop stop-color="#2D8FFF"/>
<stop offset="1" stop-color="#206BC2"/>
</linearGradient>
<linearGradient id="paint2_linear_296226_34345" x1="16.9861" y1="1.63732" x2="24.9655" y2="15.4495" gradientUnits="userSpaceOnUse">
<stop stop-color="#2B8AF7"/>
<stop offset="0.19" stop-color="#2B8AF7"/>
<stop offset="0.77" stop-color="#F29039"/>
<stop offset="1" stop-color="#F29039"/>
</linearGradient>
<linearGradient id="paint3_linear_296226_34345" x1="17.2034" y1="15.4031" x2="23.85" y2="26.9084" gradientUnits="userSpaceOnUse">
<stop stop-color="#FFB050"/>
<stop offset="1" stop-color="#FF2C18"/>
</linearGradient>
<clipPath id="clip0_296226_34345">
<rect width="28" height="28" fill="white"/>
</clipPath>
</defs>
</svg>
