<svg width="151" height="28" viewBox="0 0 151 28" fill="none" xmlns="http://www.w3.org/2000/svg">
<g clip-path="url(#clip0_296226_34330)">
<path d="M2.22687 8.34243C2.21359 10.8121 3.70574 12.9418 5.82175 13.9007C6.07031 14.0105 6.34171 14.0207 6.60023 13.9308L6.61462 13.9239C8.53092 13.3315 13.4483 8.1831 13.9347 6.61817C14.0241 6.3622 14.0137 6.0837 13.8957 5.83967C12.9538 3.70904 10.8165 2.22882 8.3297 2.2294C4.95675 2.2343 2.23136 4.97326 2.22687 8.34243Z" fill="url(#paint0_linear_296226_34330)"/>
<path d="M5.84655 14.1129C3.71908 15.0657 2.23356 17.195 2.22968 19.6842C2.22659 23.0387 4.9506 25.7758 8.32176 25.7625C10.7991 25.7683 12.9447 24.2709 13.9011 22.1525C14.0014 21.9103 14.0203 21.6231 13.9343 21.378C13.4476 19.7986 8.54169 14.656 6.63123 14.0649L6.61738 14.0729C6.50031 14.03 6.39918 14.0148 6.28421 14.0075C6.14154 14.0162 5.97915 14.0548 5.84655 14.1129Z" fill="url(#paint1_linear_296226_34330)"/>
<path d="M14.0927 5.85105C13.9924 6.09321 13.9735 6.38046 14.0596 6.62552C14.5462 8.20497 19.4521 13.3475 21.3546 13.9248L21.3764 13.9306C21.6324 14.0222 21.9039 14.0128 22.1473 13.8906C24.2747 12.9379 25.7602 10.8086 25.7641 8.31939C25.7811 4.95683 23.0432 2.22778 19.6721 2.24101C17.1947 2.2353 15.0491 3.73269 14.0927 5.85105Z" fill="url(#paint2_linear_296226_34330)"/>
<path d="M21.3901 14.074L21.3719 14.0692C19.4571 14.6689 14.5359 19.8137 14.0556 21.3801C13.9756 21.6412 13.9797 21.915 14.0895 22.1585C15.044 24.2925 17.1767 25.7764 19.6629 25.7673C23.0257 25.758 25.7574 23.0291 25.768 19.6624C25.7716 17.1897 24.2921 15.0521 22.1611 14.1043C22.0206 14.0473 21.8752 14.0086 21.7267 14.0177C21.6127 14.0068 21.5005 14.0255 21.3901 14.074Z" fill="url(#paint3_linear_296226_34330)"/>
<path d="M148.233 6.73377C147.636 6.73377 147.123 6.52859 146.692 6.1153C146.263 5.68443 146.048 5.15683 146.048 4.53836C146.048 3.93749 146.252 3.42161 146.663 2.9878C147.091 2.55693 147.616 2.34003 148.23 2.34003C148.828 2.34003 149.341 2.55693 149.772 2.9878C150.201 3.40109 150.416 3.91697 150.416 4.53836C150.416 5.13924 150.201 5.65512 149.772 6.08892C149.361 6.51687 148.848 6.73377 148.233 6.73377ZM146.327 8.7621H150.136V25.6629H146.327V8.7621Z" fill="white"/>
<path d="M115.516 25.6629V12.6194H113.584V8.7621H117.562V11.4382H118.85C119.372 10.4797 120.101 9.74696 121.036 9.23987C121.989 8.7152 123.138 8.4514 124.481 8.4514C125.807 8.4514 126.938 8.70348 127.87 9.21056C128.823 9.71764 129.587 10.4768 130.167 11.491H130.252C131.484 9.46264 133.408 8.44847 136.022 8.44847C138.132 8.44847 139.793 9.06694 141.009 10.3068C142.221 11.5261 142.83 13.1998 142.83 15.3219V25.6629H139.021V15.999C139.021 13.2203 137.695 11.831 135.043 11.831C132.391 11.831 131.065 13.2203 131.065 15.999V25.6629H127.256V15.999C127.256 13.2203 125.921 11.831 123.251 11.831C121.963 11.831 120.984 12.1886 120.311 12.9008C119.658 13.5955 119.331 14.6273 119.331 15.999V25.6629H115.516Z" fill="white"/>
<path d="M103.215 22.676C104.803 22.676 106.024 22.1865 106.884 21.2105C107.761 20.2344 108.201 18.9007 108.201 17.2095C108.201 15.4831 107.761 14.1377 106.884 13.1821C106.024 12.2237 104.803 11.7459 103.215 11.7459C101.647 11.7459 100.423 12.2354 99.5456 13.2115C98.6683 14.1699 98.2283 15.5036 98.2283 17.2124C98.2283 18.9037 98.6683 20.2373 99.5456 21.2134C100.423 22.1895 101.647 22.676 103.215 22.676ZM103.215 25.9999C101.44 25.9999 99.8924 25.6423 98.5663 24.9301C97.2607 24.1973 96.2407 23.1743 95.515 21.8582C94.7864 20.5451 94.4221 18.9945 94.4221 17.2095C94.4221 15.4244 94.7776 13.8768 95.4858 12.5607C96.2144 11.2476 97.2403 10.2334 98.5663 9.51824C99.8924 8.78546 101.452 8.41908 103.244 8.41908C105.054 8.41908 106.613 8.77667 107.922 9.48893C109.23 10.2012 110.236 11.2154 110.947 12.5314C111.655 13.8446 112.01 15.4039 112.01 17.2066C112.01 18.9916 111.655 20.548 110.947 21.8817C110.238 23.1948 109.218 24.209 107.895 24.9242C106.587 25.6423 105.028 25.9999 103.215 25.9999Z" fill="white"/>
<path d="M83.9972 22.6761C85.5856 22.6761 86.8067 22.1866 87.6664 21.2106C88.5437 20.2345 88.9837 18.9008 88.9837 17.2096C88.9837 15.4832 88.5437 14.1378 87.6664 13.1822C86.8067 12.2238 85.5856 11.746 83.9972 11.746C82.4293 11.746 81.2052 12.2355 80.328 13.2115C79.4508 14.17 79.0107 15.5037 79.0107 17.2125C79.0107 18.9038 79.4508 20.2374 80.328 21.2135C81.2052 22.1896 82.4293 22.6761 83.9972 22.6761ZM83.9972 26C82.2224 26 80.6748 25.6424 79.3488 24.9301C78.0402 24.1974 77.0231 23.1744 76.2945 21.8583C75.5659 20.5423 75.2016 18.9946 75.2016 17.2096C75.2016 15.4245 75.5572 13.8769 76.2654 12.5608C76.994 11.2477 78.0198 10.2335 79.3459 9.51834C80.6719 8.78556 82.2311 8.41917 84.0235 8.41917C85.8333 8.41917 87.3925 8.77676 88.701 9.48902C90.0067 10.2013 91.0151 11.2155 91.7262 12.5315C92.4344 13.8447 92.7899 15.404 92.7899 17.2067C92.7899 18.9917 92.4344 20.5481 91.7262 21.8818C91.018 23.1949 89.9979 24.2091 88.6748 24.9243C87.3663 25.6424 85.8071 26 83.9972 26Z" fill="white"/>
<path d="M72.5087 2H68.6996V25.6629H72.5087V2Z" fill="white"/>
<path d="M64.943 2H61.1339V25.6629H64.943V2Z" fill="white"/>
<path d="M43.7581 16.084H51.6852L47.7916 6.76014H47.6517L43.7581 16.084ZM36 25.6629L45.6641 2.8471H49.8084L59.4142 25.6629H55.4652L52.8044 19.4108H42.4962L39.8353 25.6629H36Z" fill="white"/>
</g>
<defs>
<linearGradient id="paint0_linear_296226_34330" x1="14.3767" y1="4.41029" x2="-0.0191963" y2="11.3745" gradientUnits="userSpaceOnUse">
<stop stop-color="#2D8FFF"/>
<stop offset="1" stop-color="#206BC2"/>
</linearGradient>
<linearGradient id="paint1_linear_296226_34330" x1="3.87234" y1="14.0008" x2="11.8517" y2="27.8129" gradientUnits="userSpaceOnUse">
<stop stop-color="#2D8FFF"/>
<stop offset="1" stop-color="#206BC2"/>
</linearGradient>
<linearGradient id="paint2_linear_296226_34330" x1="16.9861" y1="1.63732" x2="24.9655" y2="15.4495" gradientUnits="userSpaceOnUse">
<stop stop-color="#2B8AF7"/>
<stop offset="0.19" stop-color="#2B8AF7"/>
<stop offset="0.77" stop-color="#F29039"/>
<stop offset="1" stop-color="#F29039"/>
</linearGradient>
<linearGradient id="paint3_linear_296226_34330" x1="17.2034" y1="15.4031" x2="23.85" y2="26.9084" gradientUnits="userSpaceOnUse">
<stop stop-color="#FFB050"/>
<stop offset="1" stop-color="#FF2C18"/>
</linearGradient>
<clipPath id="clip0_296226_34330">
<rect width="150.416" height="28" fill="white"/>
</clipPath>
</defs>
</svg>
